<?xml version="1.0" encoding="utf-8"?>
<!-- Generator: Adobe Illustrator 25.1.0, SVG Export Plug-In . SVG Version: 6.00 Build 0)  -->
<svg version="1.1" id="Layer_1" xmlns="http://www.w3.org/2000/svg" xmlns:xlink="http://www.w3.org/1999/xlink" x="0px" y="0px"
	 viewBox="0 0 300 100" style="enable-background:new 0 0 300 100;" xml:space="preserve">
<style type="text/css">
	.st0{fill:url(#SVGID_1_);}
	.st1{fill:url(#SVGID_2_);}
</style>
<g>
	<path d="M47.5,43.4c3.5,3.6,5.3,8.6,5.3,15v28H40.6V60.1c0-3.8-0.9-6.7-2.8-8.7c-1.9-2-4.5-3.1-7.8-3.1c-3.3,0-6,1-7.9,3.1
		c-1.9,2-2.9,5-2.9,8.7v26.4H7.2V38.7h12.1v5.9c1.6-2.1,3.7-3.7,6.2-4.9c2.5-1.2,5.2-1.8,8.2-1.8C39.4,38,43.9,39.8,47.5,43.4z"/>
	<path d="M64,49.5c1.9-3.7,4.5-6.6,7.8-8.6c3.3-2,7-3,11.1-3c3.6,0,6.7,0.7,9.4,2.2c2.7,1.4,4.8,3.2,6.4,5.4v-6.8h12.2v47.8H98.7v-7
		c-1.6,2.2-3.7,4.1-6.4,5.6c-2.7,1.5-5.9,2.2-9.4,2.2c-4,0-7.7-1-11-3.1c-3.3-2.1-5.9-5-7.8-8.7c-1.9-3.8-2.9-8.1-2.9-13
		C61.1,57.6,62,53.3,64,49.5z M96.9,55c-1.1-2.1-2.7-3.7-4.7-4.8c-2-1.1-4.1-1.7-6.3-1.7s-4.3,0.5-6.2,1.6c-1.9,1.1-3.4,2.7-4.6,4.8
		c-1.2,2.1-1.8,4.6-1.8,7.5s0.6,5.4,1.8,7.5c1.2,2.2,2.7,3.8,4.7,5c1.9,1.1,4,1.7,6.2,1.7c2.2,0,4.3-0.6,6.3-1.7
		c2-1.1,3.5-2.7,4.7-4.8c1.1-2.1,1.7-4.6,1.7-7.5C98.7,59.6,98.1,57.1,96.9,55z"/>
	<path d="M162.9,43.4c3.5,3.6,5.3,8.6,5.3,15v28h-12.1V60.1c0-3.8-0.9-6.7-2.8-8.7c-1.9-2-4.5-3.1-7.8-3.1c-3.3,0-6,1-7.9,3.1
		c-1.9,2-2.9,5-2.9,8.7v26.4h-12.1V38.7h12.1v5.9c1.6-2.1,3.7-3.7,6.2-4.9c2.5-1.2,5.2-1.8,8.2-1.8C154.8,38,159.4,39.8,162.9,43.4z
		"/>
	<path d="M188.4,84.2c-3.7-2-6.6-4.9-8.7-8.7c-2.1-3.7-3.1-8-3.1-12.9c0-4.9,1.1-9.2,3.2-12.9c2.2-3.7,5.1-6.6,8.8-8.7
		c3.7-2,7.9-3.1,12.5-3.1c4.6,0,8.8,1,12.5,3.1c3.7,2,6.7,4.9,8.8,8.7c2.2,3.7,3.2,8,3.2,12.9c0,4.9-1.1,9.2-3.3,12.9
		c-2.2,3.7-5.2,6.6-9,8.7s-8,3.1-12.6,3.1C196.2,87.2,192.1,86.2,188.4,84.2z M207,75.1c1.9-1.1,3.5-2.7,4.6-4.8
		c1.1-2.1,1.7-4.7,1.7-7.8c0-4.5-1.2-8-3.6-10.5c-2.4-2.4-5.3-3.7-8.7-3.7c-3.4,0-6.3,1.2-8.7,3.7c-2.3,2.4-3.5,5.9-3.5,10.5
		c0,4.5,1.1,8,3.4,10.5c2.3,2.4,5.1,3.7,8.6,3.7C203,76.7,205,76.2,207,75.1z"/>
</g>
<g>
	<linearGradient id="SVGID_1_" gradientUnits="userSpaceOnUse" x1="274.8699" y1="12.8418" x2="235.9448" y2="71.4924">
		<stop  offset="0" style="stop-color:#3AB3FF"/>
		<stop  offset="1" style="stop-color:#4E7BFF"/>
	</linearGradient>
	<path class="st0" d="M246.7,46.9v12.4c14.9,0,27.2-11.8,27.8-26.6h11.5V20.4h-11.5v-8.3h-12.4v8.3h-16.8v12.4h16.8
		C261.5,40.7,254.8,46.9,246.7,46.9z"/>
	<linearGradient id="SVGID_2_" gradientUnits="userSpaceOnUse" x1="296.4135" y1="27.1398" x2="257.4884" y2="85.7904">
		<stop  offset="0" style="stop-color:#3AB3FF"/>
		<stop  offset="1" style="stop-color:#4E7BFF"/>
	</linearGradient>
	<path class="st1" d="M283.2,52.4c-7.4,13-21.3,21-36.2,21v12.4c19.3,0,37.3-10.5,46.9-27.3L283.2,52.4z"/>
</g>
</svg>
