<?xml version="1.0" encoding="utf-8"?>
<!-- Generator: Adobe Illustrator 25.0.1, SVG Export Plug-In . SVG Version: 6.00 Build 0)  -->
<svg version="1.1" id="Layer_1" xmlns="http://www.w3.org/2000/svg" xmlns:xlink="http://www.w3.org/1999/xlink" x="0px" y="0px"
	 viewBox="0 0 320 320" style="enable-background:new 0 0 320 320;" xml:space="preserve">
<style type="text/css">
	.st0{opacity:0.3;}
	.st1{display:none;fill:#898E93;}
	.st2{opacity:0.7;}
	.st3{opacity:0.2;}
	.st4{opacity:0.5;fill:url(#SVGID_1_);}
	.st5{opacity:0.6;}
</style>
<ellipse class="st0" cx="160.5" cy="270" rx="106.5" ry="32"/>
<rect x="141.6101" y="125.6991" transform="matrix(0.9009 0.4341 -0.4341 0.9009 74.4972 -52.7125)" class="st1" width="22.086" height="22.086"/>
<circle class="st1" cx="192.7566" cy="187.3074" r="15.1115"/>
<path class="st1" d="M124.8342,262.5285l-15.2741-51.9727l52.8858,11.7281L124.8342,262.5285z"/>
<g class="st2">
	<path d="M216.8447,94.1602c0-8.7481-25.2264-15.8398-56.3447-15.8398s-56.3447,7.0917-56.3447,15.8398l3.5572,10
		c0-8.1958,23.6338-14.8398,52.7875-14.8398s52.7875,6.644,52.7875,14.8398L216.8447,94.1602z"/>
</g>
<path class="st3" d="M160.5,238c51.7457,0,94.8654,11.0893,104.4886,25.7897l-51.7011-159.6295
	c0-8.1958-23.6337-14.8398-52.7875-14.8398s-52.7875,6.644-52.7875,14.8398L56.0114,263.7897
	C65.6346,249.0893,108.7543,238,160.5,238z"/>
<linearGradient id="SVGID_1_" gradientUnits="userSpaceOnUse" x1="160.5" y1="198.8344" x2="160.5" y2="101.4765">
	<stop  offset="0" style="stop-color:#FFFFFF;stop-opacity:0"/>
	<stop  offset="1" style="stop-color:#FFFFFF"/>
</linearGradient>
<path class="st4" d="M160.5,89.3204c-9.7234,0-18.8254,0.7422-26.6487,2.0314L108,203.2347h105L187.1487,91.3518
	C179.3254,90.0626,170.2234,89.3204,160.5,89.3204z"/>
<g class="st5">
	<path d="M160.5,40.0485c17.213,0,33.2207,1.8071,47.3947,4.7651C202.7399,29.883,183.4829,18.7864,160.5,18.7864
		s-42.2399,11.0966-47.3947,26.0273C127.2793,41.8556,143.287,40.0485,160.5,40.0485z"/>
</g>
<g>
	<path d="M160.5,50.6796c-60.4752,0-109.5,13.3271-109.5,29.767c0,11.155,22.5759,20.8752,55.9808,25.9729l0.7318-2.2593l-3.5572-10
		c0-8.748,25.2264-15.8398,56.3447-15.8398s56.3447,7.0917,56.3447,15.8398l-3.5572,10l0.7318,2.2593
		C247.4241,101.3218,270,91.6016,270,80.4466C270,64.0067,220.9752,50.6796,160.5,50.6796z"/>
</g>
<g class="st0">
	<path d="M160.5,50.6796c60.4752,0,109.5,13.3271,109.5,29.767c0-16.4399-46.7767-40.3981-109.5-40.3981S51,64.0067,51,80.4466
		C51,64.0067,100.0248,50.6796,160.5,50.6796z"/>
</g>
</svg>
