<?xml version="1.0" encoding="utf-8"?>
<!-- Generator: Adobe Illustrator 25.0.1, SVG Export Plug-In . SVG Version: 6.00 Build 0)  -->
<svg version="1.1" id="Layer_1" xmlns="http://www.w3.org/2000/svg" xmlns:xlink="http://www.w3.org/1999/xlink" x="0px" y="0px"
	 viewBox="0 0 320 320" style="enable-background:new 0 0 320 320;" xml:space="preserve">
<style type="text/css">
	.st0{opacity:0.2;}
	.st1{opacity:0.4;}
	.st2{opacity:0.6;}
	.st3{opacity:0.5;}
	.st4{opacity:0.8;}
</style>
<g id="Ebene_1_5_">
	<path class="st0" d="M99,191.8c1.7,0,3.3,1,3.9,2.6l6.8,15.7c1.7,3.9,5.6,6.5,9.9,6.5H204c4.3,0,8.2-2.5,9.9-6.5l6.8-15.7
		c0.7-1.6,2.2-2.6,3.9-2.6h22.5v-82h-48.6c-14.8,0-26.7-12-26.7-26.7V34.5H94.3c-9.8,0-17.8,8-17.8,17.8v139.5H99z"/>
	<path class="st1" d="M198.5,109.8h48.6l-75.4-75.4v48.6C171.8,97.9,183.7,109.8,198.5,109.8z"/>
	<path class="st2" d="M141.8,107.4h-24.1c-3.8,0-7-3.1-7-7l0,0c0-3.8,3.1-7,7-7h24.1c3.8,0,7,3.1,7,7l0,0
		C148.7,104.3,145.6,107.4,141.8,107.4z"/>
	<path class="st2" d="M210.9,152.2h-92.5c-4.2,0-7.6-3.4-7.6-7.6v0c0-4.2,3.4-7.6,7.6-7.6h92.5c4.2,0,7.6,3.4,7.6,7.6v0
		C218.6,148.8,215.2,152.2,210.9,152.2z"/>
	<path class="st2" d="M210.9,188.6h-92.5c-4.2,0-7.6-3.4-7.6-7.6v0c0-4.2,3.4-7.6,7.6-7.6h92.5c4.2,0,7.6,3.4,7.6,7.6v0
		C218.6,185.1,215.2,188.6,210.9,188.6z"/>
</g>
<path class="st3" d="M220.7,194.4l-6.8,15.7c-1.7,3.9-5.6,6.5-9.9,6.5h-84.3c-4.3,0-8.2-2.5-9.9-6.5l-6.8-15.7
	c-0.7-1.6-2.2-2.6-3.9-2.6H37V278c0,5.9,4.8,10.8,10.8,10.8h228.1c5.9,0,10.8-4.8,10.8-10.8v-86.1h-62
	C222.9,191.8,221.4,192.8,220.7,194.4z"/>
<g class="st4">
	<polygon points="76.5,142 37,191.8 76.5,191.8 	"/>
	<polygon points="247.1,142 247.1,191.8 286.6,191.8 	"/>
</g>
</svg>
