<svg width="320" height="320" viewBox="0 0 320 320" xmlns="http://www.w3.org/2000/svg">
<ellipse cx="160.5" cy="270" rx="106.5" ry="32" fill-opacity="0.3" />
<path d="M216.8,94.2c0-8.7-25.2-15.8-56.3-15.8s-56.3,7.1-56.3,15.8l3.6,10c0-8.2,23.6-14.8,52.8-14.8 s52.8,6.6,52.8,14.8L216.8,94.2z" fill-opacity="0.7" />
<path d="M160.5,238c51.7,0,94.9,11.1,104.5,25.8l-51.7-159.6c0-8.2-23.6-14.8-52.8-14.8s-52.8,6.6-52.8,14.8L56,263.8 C65.6,249.1,108.8,238,160.5,238z" fill-opacity="0.15" />
<path d="M160.5,40c17.2,0,33.2,1.8,47.4,4.8c-5.2-14.9-24.4-26-47.4-26s-42.2,11.1-47.4,26 C127.3,41.9,143.3,40,160.5,40z" fill-opacity="0.6" />
<path d="M160.5,50.7C100,50.7,51,64,51,80.4c0,11.2,22.6,20.9,56,26l0.7-2.3l-3.6-10c0-8.7,25.2-15.8,56.3-15.8s56.3,7.1,56.3,15.8 l-3.6,10l0.7,2.3c33.4-5.1,56-14.8,56-26C270,64,221,50.7,160.5,50.7z" fill-opacity="1" />
<path d="M160.5,50.7C221,50.7,270,64,270,80.4C270,64,223.2,40,160.5,40S51,64,51,80.4C51,64,100,50.7,160.5,50.7z" fill-opacity="0.3" />
</svg>
