<?xml version="1.0" encoding="UTF-8"?>
<svg id="a" data-name="Layer 1" xmlns="http://www.w3.org/2000/svg" viewBox="0 0 360 140">
  <defs>
    <style>
      .b {
        fill: #ffffff;
      }

      .c {
        fill: #d31f9d;
      }
    </style>
  </defs>
  <path class="b" d="M296.5034,107.1878c-19.0781,0-34.5996-15.8745-34.5996-35.3877s15.5215-35.387,34.5996-35.387,34.5989,15.8745,34.5989,35.387-15.5208,35.3877-34.5989,35.3877ZM296.5034,50.6632c-11.2207,0-20.3496,9.4819-20.3496,21.137s9.1289,21.1377,20.3496,21.1377,20.3489-9.4827,20.3489-21.1377-9.1282-21.137-20.3489-21.137Z"/>
  <path class="b" d="M62.8857,36.4278c-9.9966,0-17.8507,3.4847-23.4836,8.8643l-2.7956-4.3571h-7.669v28.2469c-.0254.5649-.0399,1.1302-.0399,1.6953v34.7805h15v-34.7805c0-14.3555,10.229-19.4495,18.988-19.4495,10.5366,0,16.5798,7.0891,16.5798,19.4495v34.7805h15v-34.7805c0-20.6052-12.6907-34.4495-31.5798-34.4495Z"/>
  <path class="b" d="M173.2802,40.9351h-7.669l-3.3257,5.1835c-6.2037-6.0084-14.5682-9.7054-23.7662-9.7054-19.0781,0-34.5989,15.8745-34.5989,35.387s15.5208,35.3877,34.5989,35.3877c8.9164,0,17.0548-3.4688,23.1961-9.1544l3.8958,6.0721h7.669v-63.1704ZM138.5193,92.9378c-11.2207,0-20.3489-9.4827-20.3489-21.1377s9.1282-21.137,20.3489-21.137,20.3496,9.4819,20.3496,21.137-9.1289,21.1377-20.3496,21.1377Z"/>
  <path class="b" d="M221.4214,36.4278c-10.0105,0-17.8723,3.4943-23.5068,8.8863l-2.8096-4.3791h-7.669v29.783c-.0002.0531-.0034.1061-.0034.1592v33.2805h15v-33.2805c0-14.3555,10.229-19.4495,18.9888-19.4495,10.5359,0,16.5791,7.0891,16.5791,19.4495v33.2805h15v-33.2805c0-20.6052-12.6907-34.4495-31.5791-34.4495Z"/>
  <rect class="c" x="276.3458" y="117.7933" width="40.8201" height="12"/>
</svg>