<?xml version="1.0" encoding="UTF-8"?>
<svg id="a" data-name="Layer 1" xmlns="http://www.w3.org/2000/svg" viewBox="0 0 360 140">
  <defs>
    <style>
      .b {
        fill: #111111;
      }

      .c {
        fill: #ecd408;
      }
    </style>
  </defs>
  <path class="b" d="M271.224,106.9426c-19.0781,0-34.5996-15.8745-34.5996-35.3877s15.5215-35.387,34.5996-35.387,34.5989,15.8745,34.5989,35.387-15.5208,35.3877-34.5989,35.3877ZM271.224,50.4179c-11.2207,0-20.3496,9.4819-20.3496,21.137s9.1289,21.1377,20.3496,21.1377,20.3489-9.4827,20.3489-21.1377-9.1282-21.137-20.3489-21.137Z"/>
  <path class="b" d="M54.1858,129.9574h14.25v-29.608c5.7433,4.3386,12.8305,6.9182,20.5022,6.9182,19.0781,0,34.5989-15.8745,34.5989-35.3877s-15.5208-35.387-34.5989-35.387c-9.1979,0-17.5625,3.697-23.7662,9.7054l-3.3257-5.1835h-7.669l.0087,88.9426ZM88.9381,93.0176c-11.2207,0-20.3496-9.4827-20.3496-21.1377s9.1289-21.137,20.3496-21.137,20.3489,9.4819,20.3489,21.137-9.1282,21.1377-20.3489,21.1377Z"/>
  <path class="b" d="M216.8944,84.305c-3.7149,5.1465-9.6156,8.4975-16.2708,8.4975-11.2207,0-20.3496-9.4827-20.3496-21.1377s9.1289-21.137,20.3496-21.137c5.742,0,10.9258,2.4932,14.629,6.4798,3.3409-2.1117,8.2575-5.2152,12.1845-7.6765-6.3495-7.9596-16.0095-13.0533-26.8135-13.0533-19.0781,0-34.5996,15.8745-34.5996,35.387s15.5215,35.3877,34.5996,35.3877c11.3617,0,21.4601-5.6315,27.7716-14.3073l-11.5008-8.4402Z"/>
  <polygon class="b" points="142.1523 36.8857 136.9992 42.7734 136.9992 105.8322 153.4992 105.8322 153.4992 36.8857 142.1523 36.8857"/>
  <rect class="c" x="251.148" y="117.8746" width="40.8201" height="12"/>
</svg>