<?xml version="1.0" encoding="utf-8"?>
<!-- Generator: Adobe Illustrator 25.0.1, SVG Export Plug-In . SVG Version: 6.00 Build 0)  -->
<svg version="1.1" id="Layer_1" xmlns="http://www.w3.org/2000/svg" xmlns:xlink="http://www.w3.org/1999/xlink" x="0px" y="0px"
	 viewBox="0 0 320 320" style="enable-background:new 0 0 320 320;" xml:space="preserve">
<style type="text/css">
	.st0{opacity:0.3;enable-background:new    ;}
	.st1{display:none;fill:#898E93;}
	.st2{opacity:0.7;}
	.st3{opacity:0.15;enable-background:new    ;}
	.st4{opacity:0.5;fill:url(#SVGID_1_);enable-background:new    ;}
	.st5{opacity:0.6;}
	.st6{opacity:0.3;}
</style>
<ellipse class="st0" cx="160.5" cy="270" rx="106.5" ry="32"/>
<rect x="141.6" y="125.7" transform="matrix(0.4341 -0.9009 0.9009 0.4341 -36.7959 214.9154)" class="st1" width="22.1" height="22.1"/>
<circle class="st1" cx="192.8" cy="187.3" r="15.1"/>
<path class="st1" d="M124.8,262.5l-15.3-52l52.9,11.7L124.8,262.5z"/>
<path class="st2" d="M216.8,94.2c0-8.7-25.2-15.8-56.3-15.8s-56.3,7.1-56.3,15.8l3.6,10c0-8.2,23.6-14.8,52.8-14.8
	s52.8,6.6,52.8,14.8L216.8,94.2z"/>
<path class="st3" d="M160.5,238c51.7,0,94.9,11.1,104.5,25.8l-51.7-159.6c0-8.2-23.6-14.8-52.8-14.8s-52.8,6.6-52.8,14.8L56,263.8
	C65.6,249.1,108.8,238,160.5,238z"/>
<linearGradient id="SVGID_1_" gradientUnits="userSpaceOnUse" x1="160.5" y1="123.1656" x2="160.5" y2="220.5235" gradientTransform="matrix(1 0 0 -1 0 322)">
	<stop  offset="0" style="stop-color:#FFFFFF;stop-opacity:0"/>
	<stop  offset="1" style="stop-color:#FFFFFF"/>
</linearGradient>
<path class="st4" d="M160.5,89.3c-9.7,0-18.8,0.7-26.6,2L108,203.2h105L187.1,91.4C179.3,90.1,170.2,89.3,160.5,89.3z"/>
<path class="st5" d="M160.5,40c17.2,0,33.2,1.8,47.4,4.8c-5.2-14.9-24.4-26-47.4-26s-42.2,11.1-47.4,26
	C127.3,41.9,143.3,40,160.5,40z"/>
<path d="M160.5,50.7C100,50.7,51,64,51,80.4c0,11.2,22.6,20.9,56,26l0.7-2.3l-3.6-10c0-8.7,25.2-15.8,56.3-15.8s56.3,7.1,56.3,15.8
	l-3.6,10l0.7,2.3c33.4-5.1,56-14.8,56-26C270,64,221,50.7,160.5,50.7z"/>
<path class="st6" d="M160.5,50.7C221,50.7,270,64,270,80.4C270,64,223.2,40,160.5,40S51,64,51,80.4C51,64,100,50.7,160.5,50.7z"/>
<image style="overflow:visible;" width="352" height="368" xlink:href="../../../../../Desktop/Screen Shot 2021-01-22 at 4.55.46 PM.png"  transform="matrix(0.5 0 0 0.5 -202.8271 18.7864)">
</image>
</svg>
